<svg xmlns="http://www.w3.org/2000/svg" version="1.1" xmlns:xlink="http://www.w3.org/1999/xlink" xmlns:svgjs="http://svgjs.com/svgjs" width="1440" height="560" preserveAspectRatio="none" viewBox="0 0 1440 560"><g mask="url(&quot;#SvgjsMask1006&quot;)" fill="none"><path d="M479 415L478 698" stroke-width="10" stroke="url(#SvgjsLinearGradient1007)" stroke-linecap="round" class="Up"></path><path d="M513 247L512 596" stroke-width="10" stroke="url(#SvgjsLinearGradient1007)" stroke-linecap="round" class="Up"></path><path d="M797 48L796 376" stroke-width="6" stroke="url(#SvgjsLinearGradient1007)" stroke-linecap="round" class="Up"></path><path d="M974 412L973 644" stroke-width="8" stroke="url(#SvgjsLinearGradient1007)" stroke-linecap="round" class="Up"></path><path d="M479 467L478 140" stroke-width="10" stroke="url(#SvgjsLinearGradient1007)" stroke-linecap="round" class="Up"></path><path d="M499 93L498 -307" stroke-width="10" stroke="url(#SvgjsLinearGradient1007)" stroke-linecap="round" class="Up"></path><path d="M570 499L569 118" stroke-width="6" stroke="url(#SvgjsLinearGradient1007)" stroke-linecap="round" class="Up"></path><path d="M1149 524L1148 344" stroke-width="6" stroke="url(#SvgjsLinearGradient1008)" stroke-linecap="round" class="Down"></path><path d="M380 28L379 349" stroke-width="6" stroke="url(#SvgjsLinearGradient1007)" stroke-linecap="round" class="Up"></path><path d="M1146 236L1145 512" stroke-width="10" stroke="url(#SvgjsLinearGradient1007)" stroke-linecap="round" class="Up"></path><path d="M380 411L379 555" stroke-width="8" stroke="url(#SvgjsLinearGradient1007)" stroke-linecap="round" class="Up"></path><path d="M174 360L173 501" stroke-width="10" stroke="url(#SvgjsLinearGradient1008)" stroke-linecap="round" class="Down"></path><path d="M314 112L313 492" stroke-width="8" stroke="url(#SvgjsLinearGradient1007)" stroke-linecap="round" class="Up"></path><path d="M687 100L686 382" stroke-width="10" stroke="url(#SvgjsLinearGradient1008)" stroke-linecap="round" class="Down"></path><path d="M315 256L314 -121" stroke-width="10" stroke="url(#SvgjsLinearGradient1008)" stroke-linecap="round" class="Down"></path><path d="M1101 388L1100 556" stroke-width="10" stroke="url(#SvgjsLinearGradient1007)" stroke-linecap="round" class="Up"></path><path d="M443 362L442 120" stroke-width="6" stroke="url(#SvgjsLinearGradient1008)" stroke-linecap="round" class="Down"></path><path d="M1326 400L1325 600" stroke-width="8" stroke="url(#SvgjsLinearGradient1008)" stroke-linecap="round" class="Down"></path><path d="M46 430L45 161" stroke-width="8" stroke="url(#SvgjsLinearGradient1008)" stroke-linecap="round" class="Down"></path><path d="M169 546L168 184" stroke-width="6" stroke="url(#SvgjsLinearGradient1007)" stroke-linecap="round" class="Up"></path><path d="M566 11L565 -225" stroke-width="10" stroke="url(#SvgjsLinearGradient1008)" stroke-linecap="round" class="Down"></path><path d="M939 345L938 48" stroke-width="10" stroke="url(#SvgjsLinearGradient1008)" stroke-linecap="round" class="Down"></path><path d="M378 137L377 -50" stroke-width="6" stroke="url(#SvgjsLinearGradient1008)" stroke-linecap="round" class="Down"></path><path d="M556 171L555 -33" stroke-width="8" stroke="url(#SvgjsLinearGradient1007)" stroke-linecap="round" class="Up"></path><path d="M1208 20L1207 -151" stroke-width="8" stroke="url(#SvgjsLinearGradient1008)" stroke-linecap="round" class="Down"></path><path d="M250 506L249 736" stroke-width="6" stroke="url(#SvgjsLinearGradient1007)" stroke-linecap="round" class="Up"></path><path d="M106 16L105 394" stroke-width="6" stroke="url(#SvgjsLinearGradient1007)" stroke-linecap="round" class="Up"></path><path d="M13 550L12 165" stroke-width="6" stroke="url(#SvgjsLinearGradient1008)" stroke-linecap="round" class="Down"></path><path d="M49 387L48 553" stroke-width="8" stroke="url(#SvgjsLinearGradient1007)" stroke-linecap="round" class="Up"></path><path d="M1008 459L1007 113" stroke-width="8" stroke="url(#SvgjsLinearGradient1008)" stroke-linecap="round" class="Down"></path><path d="M178 177L177 -120" stroke-width="8" stroke="url(#SvgjsLinearGradient1007)" stroke-linecap="round" class="Up"></path><path d="M1224 69L1223 -196" stroke-width="6" stroke="url(#SvgjsLinearGradient1008)" stroke-linecap="round" class="Down"></path><path d="M221 532L220 907" stroke-width="8" stroke="url(#SvgjsLinearGradient1008)" stroke-linecap="round" class="Down"></path><path d="M1055 35L1054 307" stroke-width="10" stroke="url(#SvgjsLinearGradient1008)" stroke-linecap="round" class="Down"></path><path d="M300 376L299 208" stroke-width="8" stroke="url(#SvgjsLinearGradient1007)" stroke-linecap="round" class="Up"></path><path d="M238 466L237 85" stroke-width="6" stroke="url(#SvgjsLinearGradient1008)" stroke-linecap="round" class="Down"></path></g><defs><mask id="SvgjsMask1006"><rect width="1440" height="560" fill="#ffffff"></rect></mask><linearGradient x1="0%" y1="100%" x2="0%" y2="0%" id="SvgjsLinearGradient1007"><stop stop-color="rgba(211, 210, 204, 0)" offset="0"></stop><stop stop-color="rgba(211, 210, 204, 1)" offset="1"></stop></linearGradient><linearGradient x1="0%" y1="0%" x2="0%" y2="100%" id="SvgjsLinearGradient1008"><stop stop-color="rgba(211, 210, 204, 0)" offset="0"></stop><stop stop-color="rgba(211, 210, 204, 1)" offset="1"></stop></linearGradient></defs></svg>